<svg fill="#ff93b0" version="1.1" id="Capa_1" xmlns="http://www.w3.org/2000/svg" xmlns:xlink="http://www.w3.org/1999/xlink" 
	 width="80px" height="80px" viewBox="0 0 11.898 11.898"
	 xml:space="preserve">
<g>
	<g>
		<path d="M8.245,4.157V3.93L8.237,3.887C8.085,3.48,7.833,3.159,7.589,2.849C7.247,2.414,6.97,2.057,7.038,1.587
			c0.125-0.05,0.207-0.117,0.207-0.209c0.006-0.045,0.113-0.577,0.18-0.901l0,0l0.021-0.102C7.442,0.36,7.441,0.344,7.436,0.33
			C7.309,0.025,6.284,0,5.957,0C5.628,0,4.604,0.025,4.478,0.33c-0.006,0.014-0.008,0.03-0.01,0.046l0.021,0.101l0,0
			c0.066,0.324,0.174,0.855,0.179,0.888c0,0.091,0.075,0.158,0.189,0.209C4.934,2.051,4.652,2.41,4.307,2.849
			C4.063,3.159,3.812,3.48,3.659,3.887L3.651,3.908v7.47c0,0.515,2.204,0.521,2.298,0.521c0.094,0,2.298-0.006,2.298-0.521
			L8.245,4.173c0-0.003,0.002-0.005,0.002-0.008S8.245,4.159,8.245,4.157z M4.757,0.394c0.048-0.02,0.127-0.043,0.229-0.064
			c0.213-0.045,0.538-0.084,0.97-0.084c0.432,0,0.757,0.039,0.97,0.084c0.102,0.021,0.181,0.044,0.229,0.065
			c-0.15,0.064-0.56,0.148-1.199,0.148C5.317,0.543,4.906,0.458,4.757,0.394z M4.5,3.001c0.332-0.422,0.648-0.826,0.612-1.35
			C5.396,1.709,5.75,1.719,5.957,1.719c0.203,0,0.545-0.01,0.827-0.062C6.751,2.177,7.065,2.58,7.396,3.001
			C7.61,3.274,7.829,3.558,7.972,3.893c-0.594-0.246-1.95-0.25-2.023-0.25c-0.073,0-1.431,0.004-2.024,0.25
			C4.067,3.559,4.285,3.274,4.5,3.001z M5.949,11.652c-1.105,0-1.939-0.17-2.052-0.291v-0.329c0.357,0.118,0.989,0.245,1.751,0.245
			c1.104,0,1.938-0.112,2.052-0.233L7.699,4.521c0.113-0.028,0.216-0.059,0.3-0.097l0.002,6.938
			C7.888,11.482,7.054,11.652,5.949,11.652z"/>
	</g>
</g>
</svg>